<?xml version="1.0" encoding="UTF-8" standalone="no"?>
<!-- Created with Inkscape (http://www.inkscape.org/) -->

<svg
   xmlns:dc="http://purl.org/dc/elements/1.1/"
   xmlns:cc="http://creativecommons.org/ns#"
   xmlns:rdf="http://www.w3.org/1999/02/22-rdf-syntax-ns#"
   xmlns:svg="http://www.w3.org/2000/svg"
   xmlns="http://www.w3.org/2000/svg"
   xmlns:sodipodi="http://sodipodi.sourceforge.net/DTD/sodipodi-0.dtd"
   xmlns:inkscape="http://www.inkscape.org/namespaces/inkscape"
   viewBox="0 0 186 142"
   id="svg2"
   version="1.1"
   inkscape:version="0.91 r13725"
   sodipodi:docname="wind-flag.svg"
   width="186"
   height="142">
  <defs
     id="defs4" />
  <sodipodi:namedview
     id="base"
     pagecolor="#ffffff"
     bordercolor="#666666"
     borderopacity="1.0"
     inkscape:pageopacity="0.0"
     inkscape:pageshadow="2"
     inkscape:zoom="1.979899"
     inkscape:cx="-22.626972"
     inkscape:cy="61.51437"
     inkscape:document-units="px"
     inkscape:current-layer="layer1"
     showgrid="true"
     showguides="true"
     inkscape:guide-bbox="true"
     inkscape:snap-smooth-nodes="false"
     inkscape:snap-others="false"
     inkscape:snap-bbox="false"
     inkscape:snap-grids="false"
     inkscape:snap-to-guides="false"
     inkscape:object-nodes="true"
     inkscape:snap-nodes="false"
     inkscape:window-width="1855"
     inkscape:window-height="1056"
     inkscape:window-x="65"
     inkscape:window-y="24"
     inkscape:window-maximized="1">
    <sodipodi:guide
       position="195.35714,710.7143"
       orientation="1,0"
       id="guide3340" />
    <inkscape:grid
       type="xygrid"
       id="grid3370" />
  </sodipodi:namedview>
  <metadata
     id="metadata7">
    <rdf:RDF>
      <cc:Work
         rdf:about="">
        <dc:format>image/svg+xml</dc:format>
        <dc:type
           rdf:resource="http://purl.org/dc/dcmitype/StillImage" />
        <dc:title></dc:title>
      </cc:Work>
    </rdf:RDF>
  </metadata>
  <g
     inkscape:label="Layer 1"
     inkscape:groupmode="layer"
     id="layer1"
     transform="translate(0,-910.36219)">
    <path
       style="fill:none;fill-rule:evenodd;stroke:#000000;stroke-width:0.96485758px;stroke-linecap:butt;stroke-linejoin:miter;stroke-opacity:1"
       d="M 6.7258834,912.99363 179.95737,944.93069 6.7258834,976.51679 Z"
       id="path3338"
       inkscape:connector-curvature="0"
       sodipodi:nodetypes="cccc" />
    <path
       style="fill:#ff4200;fill-opacity:1"
       d="m 7.4481973,944.76452 c 0,-16.98632 0.1243222,-30.88419 0.2762692,-30.88419 0.2823614,0 16.7315475,3.007 18.4171655,3.36676 l 0.930439,0.19858 0,27.32186 0,27.32183 -1.776299,0.36725 c -2.13928,0.4423 -17.3293117,3.19208 -17.6332911,3.19208 -0.1178608,0 -0.2142836,-13.89788 -0.2142836,-30.88417 z"
       id="path4181"
       inkscape:connector-curvature="0" />
    <path
       style="fill:#ff4200;fill-opacity:1"
       d="m 7.7060883,960.64228 c -0.2487014,-19.98426 0.066598,-46.40685 0.5539686,-46.42444 0.2047807,-0.008 4.5212651,0.73827 9.5921781,1.65697 l 9.219836,1.67039 0,27.2298 0,27.2298 -9.050666,1.64657 c -4.977864,0.90562 -9.2941773,1.64652 -9.591799,1.64647 -0.4843945,-9e-5 -0.56025,-1.53673 -0.7235177,-14.65556 z"
       id="path4183"
       inkscape:connector-curvature="0" />
    <path
       style="fill:#ff4200;fill-opacity:1"
       d="m 52.786123,944.88669 c 0,-17.91177 0.08811,-22.58339 0.425725,-22.58339 0.411125,0 20.435978,3.64252 22.330829,4.06197 l 0.933445,0.20664 -0.08753,18.30744 -0.08763,18.30745 -7.105198,1.28402 c -3.907859,0.70621 -9.198691,1.66996 -11.757407,2.14164 l -4.652218,0.85764 0,-22.58341 z"
       id="path4185"
       inkscape:connector-curvature="0" />
    <path
       style="fill:#ff4200;fill-opacity:1"
       d="m 103.1992,944.72359 c 0,-12.58487 0.0351,-13.36774 0.59412,-13.21614 0.32677,0.0886 5.27474,1.01516 10.9955,2.05893 l 10.40137,1.89779 6.4e-4,9.3632 6.4e-4,9.3632 -1.7763,0.36583 c -3.47317,0.71527 -19.20115,3.54446 -19.70429,3.54446 -0.44773,0 -0.51168,-1.67195 -0.51168,-13.37727 z"
       id="path4187"
       inkscape:connector-curvature="0" />
    <ellipse
       style="fill:#ff4200;fill-opacity:1"
       id="path4193"
       cx="236.01196"
       cy="432.66864"
       rx="1.5143835e-06"
       ry="9.3594042e-07" />
    <path
       style="fill:none;fill-rule:evenodd;stroke:#000000;stroke-width:3.84128499;stroke-linecap:round;stroke-linejoin:miter;stroke-miterlimit:4;stroke-dasharray:none;stroke-opacity:1"
       d="m 6.7258834,912.97492 0,135.02708"
       id="path4191"
       inkscape:connector-curvature="0" />
    <path
       style="fill:#ff4200;fill-opacity:1;stroke-width:4;stroke-linecap:round;stroke-miterlimit:4;stroke-dasharray:none"
       d="m 146.36107,945.06038 c 0,-4.84169 0.0635,-5.46348 0.55787,-5.46348 0.30684,0 3.27579,0.49958 6.59769,1.11017 l 6.0398,1.11016 0,3.07343 c 0,3.07167 -5.5e-4,3.07353 -0.93045,3.26805 -0.51174,0.10704 -3.21426,0.60166 -6.00558,1.09917 -2.79133,0.49749 -5.34159,0.98586 -5.66725,1.08525 -0.546,0.16666 -0.59208,-0.24456 -0.59208,-5.28275 z"
       id="path4214"
       inkscape:connector-curvature="0" />
    <path
       style="fill:#ffffff;fill-opacity:1;stroke-width:4;stroke-linecap:round;stroke-miterlimit:4;stroke-dasharray:none"
       d="m 27.264414,944.73982 c 0,-25.86057 0.03211,-27.33398 0.5921,-27.19805 0.325655,0.079 5.768738,1.08838 12.095747,2.24295 6.327007,1.15456 11.808165,2.17366 12.180345,2.26464 0.66931,0.16365 0.675581,0.41114 0.575672,22.71767 -0.05552,12.40372 -0.147768,22.60071 -0.204932,22.66002 -0.07872,0.0816 -24.743472,4.6438 -25.154352,4.65269 -0.04652,9.9e-4 -0.08459,-12.30196 -0.08459,-27.33992 z"
       id="path4216"
       inkscape:connector-curvature="0"></path>
    <path
       style="fill:#ffffff;fill-opacity:1;stroke-width:4;stroke-linecap:round;stroke-miterlimit:4;stroke-dasharray:none"
       d="m 76.56379,944.89408 c 0.104513,-10.04377 0.207528,-18.27846 0.22893,-18.29932 0.02141,-0.0208 4.987166,0.87951 11.035044,2.00081 6.047877,1.1213 11.985789,2.21208 13.195366,2.42393 l 2.19924,0.3852 0,13.43422 0,13.43421 -13.424306,2.44117 -13.424306,2.44119 0.190032,-18.26141 z"
       id="path4218"
       inkscape:connector-curvature="0" />
    <path
       style="fill:#ffffff;fill-opacity:1;stroke-width:4;stroke-linecap:round;stroke-miterlimit:4;stroke-dasharray:none"
       d="m 125.38381,944.91032 c 0,-5.13053 0.0842,-9.32824 0.18704,-9.32824 0.20276,0 18.72442,3.40575 20.11353,3.69846 l 0.84585,0.17824 -0.10091,5.41348 c -0.0884,4.73867 -0.17273,5.4355 -0.67669,5.59013 -0.31665,0.0972 -4.61047,0.89972 -9.5418,1.78349 -4.93136,0.88374 -9.38479,1.69364 -9.89654,1.79975 l -0.93044,0.19293 0,-9.32824 z"
       id="path4220"
       inkscape:connector-curvature="0" />
    <path
       style="fill:#ffffff;fill-opacity:1;stroke-width:4;stroke-linecap:round;stroke-miterlimit:4;stroke-dasharray:none"
       d="m 159.55643,944.88244 c 0,-2.16277 0.1163,-2.97787 0.42292,-2.96394 0.7224,0.0327 16.34564,3.06998 15.97546,3.10569 -0.19227,0.0186 -3.77024,0.66419 -7.95106,1.43474 -4.1808,0.77054 -7.79178,1.40227 -8.0244,1.40382 -0.30538,0.002 -0.42292,-0.82628 -0.42292,-2.98031 z"
       id="path4222"
       inkscape:connector-curvature="0" />
    <ellipse
       style="fill:#ff0000;fill-opacity:1;stroke-width:4;stroke-linecap:round;stroke-miterlimit:4;stroke-dasharray:none"
       id="path3356"
       cx="6.1434746"
       cy="1047.4501"
       rx="5.2697668"
       ry="5.4306211" />
    <ellipse
       style="fill:#ff4200;fill-opacity:1;stroke-width:4;stroke-linecap:round;stroke-miterlimit:4;stroke-dasharray:none"
       id="path3358"
       cx="13.496637"
       cy="1055.9117"
       rx="0.36765814"
       ry="0.25258705" />
  </g>
</svg>
